<?xml version="1.0" encoding="utf-8"?>
<!-- Generator: Adobe Illustrator 21.0.0, SVG Export Plug-In . SVG Version: 6.00 Build 0)  -->
<svg version="1.1" id="artwork" xmlns="http://www.w3.org/2000/svg" xmlns:xlink="http://www.w3.org/1999/xlink" x="0px" y="0px"
	 viewBox="0 0 135 40" style="enable-background:new 0 0 135 40;" xml:space="preserve">
<style type="text/css">
	.st0{fill:#FFFFFF;}
	.st1{fill:#FFFDFD;}
</style>
<g>
	<g>
		<path class="st0" d="M130,0L130,0c-0.4,0-0.7,0.3-0.7,0.6s0.3,0.6,0.6,0.6h0.1c0.4,0,0.6-0.3,0.6-0.6S130.4,0,130,0L130,0L130,0z
			 M126.9,0L126.9,0c-0.4,0-0.7,0.3-0.7,0.6s0.3,0.6,0.6,0.6h0.1c0.4,0,0.6-0.3,0.6-0.6S127.3,0,126.9,0L126.9,0z M123.9,0L123.9,0
			c-0.4,0-0.7,0.3-0.7,0.6s0.3,0.6,0.7,0.6h0.1c0.4,0,0.7-0.3,0.7-0.6S124.2,0,123.9,0L123.9,0z M120.8,0L120.8,0
			c-0.4,0-0.7,0.3-0.7,0.6s0.3,0.6,0.7,0.6h0.1c0.4,0,0.7-0.3,0.7-0.6S121.2,0,120.8,0L120.8,0z M117.8,0L117.8,0
			c-0.4,0-0.7,0.3-0.7,0.6s0.3,0.6,0.6,0.6h0.1c0.4,0,0.6-0.3,0.6-0.6S118.1,0,117.8,0L117.8,0z M114.7,0L114.7,0
			c-0.4,0-0.7,0.3-0.7,0.6s0.3,0.6,0.7,0.6h0.1c0.4,0,0.7-0.3,0.7-0.6S115.1,0,114.7,0L114.7,0z M111.7,0L111.7,0
			c-0.4,0-0.7,0.3-0.7,0.6s0.3,0.6,0.7,0.6h0.1c0.4,0,0.7-0.3,0.7-0.6S112,0,111.7,0L111.7,0z M108.6,0L108.6,0
			c-0.4,0-0.7,0.3-0.7,0.6s0.3,0.6,0.6,0.6h0.1c0.4,0,0.6-0.3,0.6-0.6S109,0,108.6,0L108.6,0z M105.6,0L105.6,0
			c-0.4,0-0.7,0.3-0.7,0.6s0.3,0.6,0.6,0.6h0.1c0.4,0,0.7-0.3,0.7-0.6S105.9,0,105.6,0L105.6,0z M102.5,0L102.5,0
			c-0.4,0-0.7,0.3-0.7,0.6s0.3,0.6,0.7,0.6h0.1c0.4,0,0.7-0.3,0.7-0.6S102.9,0,102.5,0L102.5,0z M99.4,0L99.4,0
			c-0.4,0-0.7,0.3-0.7,0.6s0.3,0.6,0.6,0.6h0.1c0.4,0,0.6-0.3,0.6-0.6S99.8,0,99.4,0L99.4,0z M96.4,0L96.4,0c-0.4,0-0.7,0.3-0.7,0.6
			s0.3,0.6,0.6,0.6h0.1C96.8,1.3,97,1,97,0.6S96.8,0,96.4,0L96.4,0z M93.3,0L93.3,0c-0.4,0-0.7,0.3-0.7,0.6s0.3,0.6,0.7,0.6h0.1
			C93.7,1.3,94,1,94,0.6S93.7,0,93.3,0L93.3,0z M90.3,0L90.3,0c-0.4,0-0.7,0.3-0.7,0.6s0.3,0.6,0.7,0.6h0.1c0.4,0,0.6-0.3,0.6-0.6
			S90.6,0,90.3,0L90.3,0z M87.2,0L87.2,0c-0.4,0-0.7,0.3-0.7,0.6s0.3,0.6,0.6,0.6h0.1c0.4,0,0.6-0.3,0.6-0.6S87.6,0,87.2,0L87.2,0z
			 M84.2,0L84.2,0c-0.4,0-0.7,0.3-0.7,0.6s0.3,0.6,0.7,0.6h0.1c0.4,0,0.7-0.3,0.7-0.6S84.5,0,84.2,0L84.2,0z M81.1,0L81.1,0
			c-0.4,0-0.7,0.3-0.7,0.6s0.3,0.6,0.7,0.6h0.1c0.4,0,0.6-0.3,0.6-0.6S81.5,0,81.1,0L81.1,0z M78.1,0L78.1,0c-0.4,0-0.7,0.3-0.7,0.6
			s0.3,0.6,0.6,0.6h0.1c0.4,0,0.6-0.3,0.6-0.6S78.4,0,78.1,0L78.1,0z M75,0L75,0c-0.4,0-0.7,0.3-0.7,0.6s0.3,0.6,0.7,0.6H75
			c0.4,0,0.7-0.3,0.7-0.6S75.4,0,75,0L75,0z M72,0L72,0c-0.4,0-0.7,0.3-0.7,0.6s0.3,0.6,0.7,0.6H72c0.4,0,0.7-0.3,0.7-0.6
			S72.3,0,72,0L72,0z M68.9,0L68.9,0c-0.4,0-0.7,0.3-0.7,0.6s0.3,0.6,0.6,0.6h0.1c0.4,0,0.6-0.3,0.6-0.6S69.3,0,68.9,0L68.9,0z
			 M65.8,0L65.8,0c-0.4,0-0.7,0.3-0.7,0.6s0.3,0.6,0.7,0.6h0.1c0.4,0,0.7-0.3,0.7-0.6S66.2,0,65.8,0L65.8,0z M62.8,0L62.8,0
			c-0.4,0-0.7,0.3-0.7,0.6s0.3,0.6,0.7,0.6h0.1c0.4,0,0.7-0.3,0.7-0.6S63.1,0,62.8,0L62.8,0z M59.7,0L59.7,0C59.3,0,59,0.3,59,0.6
			s0.3,0.6,0.7,0.6h0.1c0.4,0,0.7-0.3,0.7-0.6S60.1,0,59.7,0L59.7,0z M56.7,0L56.7,0C56.3,0,56,0.3,56,0.6s0.3,0.6,0.7,0.6h0.1
			c0.4,0,0.7-0.3,0.7-0.6S57,0,56.7,0L56.7,0z M53.6,0L53.6,0c-0.4,0-0.7,0.3-0.7,0.6s0.3,0.6,0.7,0.6h0.1c0.4,0,0.7-0.3,0.7-0.6
			S54,0,53.6,0L53.6,0z M50.6,0L50.6,0c-0.4,0-0.7,0.3-0.7,0.6s0.3,0.6,0.7,0.6h0.1c0.4,0,0.7-0.3,0.7-0.6S50.9,0,50.6,0L50.6,0z
			 M47.5,0L47.5,0c-0.4,0-0.7,0.3-0.7,0.6s0.3,0.6,0.7,0.6h0.1c0.4,0,0.7-0.3,0.7-0.6S47.9,0,47.5,0L47.5,0z M44.5,0L44.5,0
			c-0.4,0-0.7,0.3-0.7,0.6s0.3,0.6,0.7,0.6h0.1c0.4,0,0.7-0.3,0.7-0.6S44.8,0,44.5,0L44.5,0z M41.4,0L41.4,0c-0.4,0-0.7,0.3-0.7,0.6
			s0.3,0.6,0.7,0.6h0.1c0.4,0,0.7-0.3,0.7-0.6S41.8,0,41.4,0L41.4,0z M38.3,0L38.3,0c-0.4,0-0.7,0.3-0.7,0.6s0.3,0.6,0.7,0.6h0.1
			C38.7,1.3,39,1,39,0.6S38.7,0,38.3,0L38.3,0z M35.3,0L35.3,0c-0.4,0-0.7,0.3-0.7,0.6s0.3,0.6,0.7,0.6h0.1c0.4,0,0.7-0.3,0.7-0.6
			S35.7,0,35.3,0L35.3,0z M32.2,0L32.2,0c-0.4,0-0.7,0.3-0.7,0.6s0.3,0.6,0.6,0.6h0.1c0.4,0,0.7-0.3,0.7-0.6S32.6,0,32.2,0L32.2,0z
			 M29.2,0L29.2,0c-0.4,0-0.7,0.3-0.7,0.6s0.3,0.6,0.6,0.6h0.1c0.4,0,0.6-0.3,0.6-0.6S29.5,0,29.2,0L29.2,0z M26.1,0L26.1,0
			c-0.4,0-0.7,0.3-0.7,0.6s0.3,0.6,0.6,0.6h0.1c0.4,0,0.6-0.3,0.6-0.6S26.5,0,26.1,0L26.1,0z M23.1,0L23.1,0c-0.4,0-0.7,0.3-0.7,0.6
			s0.3,0.6,0.6,0.6h0.1c0.4,0,0.6-0.3,0.6-0.6S23.4,0,23.1,0L23.1,0z M20,0L20,0c-0.4,0-0.7,0.3-0.7,0.6s0.3,0.6,0.6,0.6H20
			c0.4,0,0.6-0.3,0.6-0.6S20.4,0,20,0L20,0z M17,0L17,0c-0.4,0-0.7,0.3-0.7,0.6s0.3,0.6,0.6,0.6H17c0.4,0,0.6-0.3,0.6-0.6
			S17.3,0,17,0L17,0z M13.9,0L13.9,0c-0.4,0-0.7,0.3-0.7,0.6s0.3,0.6,0.6,0.6h0.1c0.4,0,0.6-0.3,0.6-0.6S14.3,0,13.9,0L13.9,0z
			 M10.9,0L10.9,0c-0.4,0-0.7,0.3-0.7,0.6s0.3,0.6,0.6,0.6h0.1c0.4,0,0.6-0.3,0.6-0.6S11.2,0,10.9,0L10.9,0z M7.8,0L7.8,0
			C7.4,0,7.1,0.3,7.1,0.6s0.3,0.6,0.7,0.6h0.1c0.4,0,0.6-0.3,0.6-0.6S8.2,0,7.8,0L7.8,0z M4.8,0C4.8,0,4.8,0,4.8,0
			C4.7,0,4.7,0,4.8,0L4.8,0C4.7,0,4.7,0,4.8,0C4.7,0,4.7,0,4.8,0C4.7,0,4.7,0,4.8,0C4.3,0,4.1,0.3,4.1,0.7c0,0.3,0.3,0.6,0.7,0.6
			c0,0,0,0,0,0l0,0c0.4,0,0.6-0.3,0.6-0.7C5.4,0.3,5.1,0,4.8,0L4.8,0z M2.3,0.9c-0.1,0-0.3,0-0.4,0.1c0,0,0,0,0,0l0,0c0,0,0,0,0,0
			c0,0,0,0,0,0c0,0,0,0,0,0c0,0,0,0,0,0c0,0,0,0,0,0C1.6,1.3,1.6,1.7,1.8,2c0.1,0.2,0.3,0.2,0.5,0.2c0.1,0,0.3,0,0.4-0.1l0,0
			C3,1.9,3.1,1.5,2.8,1.2C2.7,1,2.5,0.9,2.3,0.9L2.3,0.9z M0.8,3.1c-0.3,0-0.5,0.2-0.6,0.5c0,0,0,0,0,0c0,0,0,0,0,0v0c0,0,0,0,0,0
			C0.1,3.9,0.3,4.3,0.6,4.4c0.1,0,0.1,0,0.2,0c0.3,0,0.5-0.2,0.6-0.5l0,0C1.6,3.6,1.4,3.2,1,3.1C1,3.1,0.9,3.1,0.8,3.1L0.8,3.1z
			 M0.6,5.9C0.3,5.9,0,6.2,0,6.6v0.1C0,7,0.3,7.3,0.6,7.3S1.3,7,1.3,6.6V6.6C1.3,6.2,1,5.9,0.6,5.9L0.6,5.9z M0.6,9
			C0.3,9,0,9.3,0,9.6v0.1c0,0.4,0.3,0.6,0.6,0.6S1.3,10,1.3,9.7V9.6C1.3,9.3,1,9,0.6,9L0.6,9z M0.6,12C0.3,12,0,12.3,0,12.7v0.1
			c0,0.4,0.3,0.6,0.6,0.6s0.6-0.3,0.6-0.6v-0.1C1.3,12.3,1,12,0.6,12L0.6,12z M0.6,15.1c-0.4,0-0.6,0.3-0.6,0.6v0.1
			c0,0.4,0.3,0.7,0.6,0.7s0.6-0.3,0.6-0.6v-0.1C1.3,15.4,1,15.1,0.6,15.1L0.6,15.1z M0.6,18.1c-0.4,0-0.6,0.3-0.6,0.7v0.1
			c0,0.4,0.3,0.6,0.6,0.6s0.6-0.3,0.6-0.6v-0.1C1.3,18.4,1,18.1,0.6,18.1L0.6,18.1z M0.6,21.2c-0.4,0-0.6,0.3-0.6,0.6v0.1
			c0,0.4,0.3,0.6,0.6,0.6s0.6-0.3,0.6-0.6v-0.1C1.3,21.5,1,21.2,0.6,21.2L0.6,21.2z M0.6,24.3c-0.4,0-0.6,0.3-0.6,0.6V25
			c0,0.4,0.3,0.6,0.6,0.6s0.6-0.3,0.6-0.6v-0.1C1.3,24.5,1,24.3,0.6,24.3L0.6,24.3z M0.6,27.3C0.3,27.3,0,27.6,0,28V28
			c0,0.4,0.3,0.6,0.6,0.6s0.6-0.3,0.6-0.6V28C1.3,27.6,1,27.3,0.6,27.3L0.6,27.3z M0.6,30.4C0.3,30.4,0,30.7,0,31v0.1
			c0,0.4,0.3,0.6,0.6,0.6s0.6-0.3,0.6-0.6V31C1.3,30.7,1,30.4,0.6,30.4L0.6,30.4z M0.6,33.4c-0.4,0-0.6,0.3-0.6,0.7v0.1
			c0,0.4,0.3,0.7,0.6,0.7s0.6-0.3,0.6-0.7v-0.1C1.3,33.7,1,33.4,0.6,33.4L0.6,33.4z M1,36.1c-0.1,0-0.2,0-0.3,0.1
			c-0.3,0.1-0.5,0.5-0.3,0.9c0,0,0,0,0,0c0,0,0,0,0,0c0,0,0,0,0,0c0.1,0.2,0.3,0.4,0.6,0.4c0.1,0,0.2,0,0.3-0.1
			c0.3-0.2,0.5-0.5,0.3-0.9l0,0C1.5,36.3,1.3,36.1,1,36.1L1,36.1z M2.8,38.1c-0.2,0-0.4,0.1-0.6,0.3c-0.2,0.3-0.1,0.7,0.2,0.9
			c0,0,0,0,0,0v0c0,0,0,0,0,0c0,0,0,0,0,0c0.1,0.1,0.2,0.1,0.3,0.1c0.2,0,0.4-0.1,0.6-0.3c0.2-0.3,0.1-0.7-0.2-0.9l0,0
			C3,38.1,2.9,38.1,2.8,38.1L2.8,38.1z M5.4,38.7L5.4,38.7c-0.4,0-0.7,0.3-0.7,0.6C4.7,39.7,5,40,5.4,40h0.1c0.4,0,0.7-0.3,0.7-0.7
			C6.1,39,5.8,38.7,5.4,38.7L5.4,38.7z M8.5,38.7L8.5,38.7c-0.4,0-0.7,0.3-0.7,0.6c0,0.4,0.3,0.7,0.7,0.7h0.1c0.4,0,0.6-0.3,0.6-0.7
			C9.1,39,8.8,38.7,8.5,38.7L8.5,38.7z M11.5,38.7L11.5,38.7c-0.4,0-0.7,0.3-0.7,0.6c0,0.4,0.3,0.7,0.6,0.7h0.1
			c0.4,0,0.6-0.3,0.6-0.7C12.2,39,11.9,38.7,11.5,38.7L11.5,38.7z M14.6,38.7L14.6,38.7c-0.4,0-0.7,0.3-0.7,0.6
			c0,0.4,0.3,0.7,0.6,0.7h0.1c0.4,0,0.6-0.3,0.6-0.7C15.3,39,15,38.7,14.6,38.7L14.6,38.7z M17.7,38.7L17.7,38.7
			c-0.4,0-0.7,0.3-0.7,0.6c0,0.4,0.3,0.7,0.6,0.7h0.1c0.4,0,0.6-0.3,0.6-0.7C18.3,39,18,38.7,17.7,38.7L17.7,38.7z M20.7,38.7
			L20.7,38.7c-0.4,0-0.7,0.3-0.7,0.6c0,0.4,0.3,0.7,0.6,0.7h0.1c0.4,0,0.6-0.3,0.6-0.7C21.4,39,21.1,38.7,20.7,38.7L20.7,38.7z
			 M23.8,38.7L23.8,38.7c-0.4,0-0.7,0.3-0.7,0.6c0,0.4,0.3,0.7,0.6,0.7h0.1c0.4,0,0.6-0.3,0.6-0.7C24.4,39,24.1,38.7,23.8,38.7
			L23.8,38.7z M26.8,38.7L26.8,38.7c-0.4,0-0.7,0.3-0.7,0.6c0,0.4,0.3,0.7,0.6,0.7h0.1c0.4,0,0.6-0.3,0.6-0.7
			C27.5,39,27.2,38.7,26.8,38.7L26.8,38.7z M29.9,38.7L29.9,38.7c-0.4,0-0.7,0.3-0.7,0.6c0,0.4,0.3,0.7,0.6,0.7h0.1
			c0.4,0,0.6-0.3,0.6-0.7C30.5,39,30.2,38.7,29.9,38.7L29.9,38.7z M32.9,38.7L32.9,38.7c-0.4,0-0.7,0.3-0.7,0.6
			c0,0.4,0.3,0.7,0.7,0.7h0.1c0.4,0,0.7-0.3,0.7-0.7C33.6,39,33.3,38.7,32.9,38.7L32.9,38.7z M36,38.7L36,38.7
			c-0.4,0-0.7,0.3-0.7,0.6c0,0.4,0.3,0.7,0.7,0.7H36c0.4,0,0.7-0.3,0.7-0.7C36.6,39,36.3,38.7,36,38.7L36,38.7z M39,38.7L39,38.7
			c-0.4,0-0.7,0.3-0.7,0.6c0,0.4,0.3,0.7,0.7,0.7H39c0.4,0,0.7-0.3,0.7-0.7C39.7,39,39.4,38.7,39,38.7L39,38.7z M42.1,38.7
			L42.1,38.7c-0.4,0-0.7,0.3-0.7,0.6c0,0.4,0.3,0.7,0.7,0.7h0.1c0.4,0,0.7-0.3,0.7-0.7C42.7,39,42.5,38.7,42.1,38.7L42.1,38.7z
			 M45.2,38.7L45.2,38.7c-0.4,0-0.7,0.3-0.7,0.6c0,0.4,0.3,0.7,0.7,0.7h0.1c0.4,0,0.7-0.3,0.7-0.7C45.8,39,45.5,38.7,45.2,38.7
			L45.2,38.7z M48.2,38.7L48.2,38.7c-0.4,0-0.7,0.3-0.7,0.6c0,0.4,0.3,0.7,0.7,0.7h0.1c0.4,0,0.7-0.3,0.7-0.7
			C48.9,39,48.6,38.7,48.2,38.7L48.2,38.7z M51.3,38.7L51.3,38.7c-0.4,0-0.7,0.3-0.7,0.6c0,0.4,0.3,0.7,0.7,0.7h0.1
			c0.4,0,0.7-0.3,0.7-0.7C51.9,39,51.6,38.7,51.3,38.7L51.3,38.7z M54.3,38.7L54.3,38.7c-0.4,0-0.7,0.3-0.7,0.6
			c0,0.4,0.3,0.7,0.7,0.7h0.1c0.4,0,0.7-0.3,0.7-0.7C55,39,54.7,38.7,54.3,38.7L54.3,38.7z M57.4,38.7L57.4,38.7
			c-0.4,0-0.7,0.3-0.7,0.6c0,0.4,0.3,0.7,0.7,0.7h0.1c0.4,0,0.7-0.3,0.7-0.7C58,39,57.7,38.7,57.4,38.7L57.4,38.7z M60.4,38.7
			L60.4,38.7c-0.4,0-0.7,0.3-0.7,0.6c0,0.4,0.3,0.7,0.7,0.7h0.1c0.4,0,0.7-0.3,0.7-0.7C61.1,39,60.8,38.7,60.4,38.7L60.4,38.7z
			 M63.5,38.7L63.5,38.7c-0.4,0-0.7,0.3-0.7,0.6c0,0.4,0.3,0.7,0.7,0.7h0.1c0.4,0,0.6-0.3,0.6-0.7C64.1,39,63.8,38.7,63.5,38.7
			L63.5,38.7z M66.5,38.7L66.5,38.7c-0.4,0-0.7,0.3-0.7,0.6c0,0.4,0.3,0.7,0.7,0.7h0.1c0.4,0,0.7-0.3,0.7-0.7
			C67.2,39,66.9,38.7,66.5,38.7L66.5,38.7z M69.6,38.7L69.6,38.7c-0.4,0-0.7,0.3-0.7,0.6c0,0.4,0.3,0.7,0.7,0.7h0.1
			c0.4,0,0.7-0.3,0.7-0.7C70.2,39,69.9,38.7,69.6,38.7L69.6,38.7z M72.6,38.7L72.6,38.7c-0.4,0-0.7,0.3-0.7,0.6
			c0,0.4,0.3,0.7,0.6,0.7h0.1c0.4,0,0.6-0.3,0.6-0.7C73.3,39,73,38.7,72.6,38.7L72.6,38.7z M75.7,38.7L75.7,38.7
			c-0.4,0-0.7,0.3-0.7,0.6c0,0.4,0.3,0.7,0.7,0.7h0.1c0.4,0,0.7-0.3,0.7-0.7C76.4,39,76.1,38.7,75.7,38.7L75.7,38.7z M78.8,38.7
			L78.8,38.7c-0.4,0-0.7,0.3-0.7,0.6c0,0.4,0.3,0.7,0.7,0.7h0.1c0.4,0,0.7-0.3,0.7-0.7C79.4,39,79.1,38.7,78.8,38.7L78.8,38.7z
			 M81.8,38.7L81.8,38.7c-0.4,0-0.7,0.3-0.7,0.6c0,0.4,0.3,0.7,0.6,0.7h0.1c0.4,0,0.6-0.3,0.6-0.7C82.5,39,82.2,38.7,81.8,38.7
			L81.8,38.7z M84.9,38.7L84.9,38.7c-0.4,0-0.7,0.3-0.7,0.6c0,0.4,0.3,0.7,0.7,0.7h0.1c0.4,0,0.6-0.3,0.6-0.7
			C85.5,39,85.2,38.7,84.9,38.7L84.9,38.7z M87.9,38.7L87.9,38.7c-0.4,0-0.7,0.3-0.7,0.6c0,0.4,0.3,0.7,0.7,0.7h0.1
			c0.4,0,0.7-0.3,0.7-0.7C88.6,39,88.3,38.7,87.9,38.7L87.9,38.7z M91,38.7L91,38.7c-0.4,0-0.7,0.3-0.7,0.6c0,0.4,0.3,0.7,0.6,0.7
			H91c0.4,0,0.6-0.3,0.6-0.7C91.6,39,91.3,38.7,91,38.7L91,38.7z M94,38.7L94,38.7c-0.4,0-0.7,0.3-0.7,0.6c0,0.4,0.3,0.7,0.7,0.7H94
			c0.4,0,0.6-0.3,0.6-0.7C94.7,39,94.4,38.7,94,38.7L94,38.7z M97.1,38.7L97.1,38.7c-0.4,0-0.7,0.3-0.7,0.6c0,0.4,0.3,0.7,0.7,0.7
			h0.1c0.4,0,0.7-0.3,0.7-0.7C97.7,39,97.4,38.7,97.1,38.7L97.1,38.7z M100.1,38.7L100.1,38.7c-0.4,0-0.7,0.3-0.7,0.6
			c0,0.4,0.3,0.7,0.6,0.7h0.1c0.4,0,0.7-0.3,0.7-0.7C100.8,39,100.5,38.7,100.1,38.7L100.1,38.7z M103.2,38.7L103.2,38.7
			c-0.4,0-0.7,0.3-0.7,0.6c0,0.4,0.3,0.7,0.6,0.7h0.1c0.4,0,0.6-0.3,0.6-0.7C103.8,39,103.6,38.7,103.2,38.7L103.2,38.7z
			 M106.3,38.7L106.3,38.7c-0.4,0-0.7,0.3-0.7,0.6c0,0.4,0.3,0.7,0.7,0.7h0.1c0.4,0,0.7-0.3,0.7-0.7C106.9,39,106.6,38.7,106.3,38.7
			L106.3,38.7z M109.3,38.7L109.3,38.7c-0.4,0-0.7,0.3-0.7,0.6c0,0.4,0.3,0.7,0.6,0.7h0.1c0.4,0,0.7-0.3,0.7-0.7
			C110,39,109.7,38.7,109.3,38.7L109.3,38.7z M112.4,38.7L112.4,38.7c-0.4,0-0.7,0.3-0.7,0.6c0,0.4,0.3,0.7,0.6,0.7h0.1
			c0.4,0,0.6-0.3,0.6-0.7C113,39,112.7,38.7,112.4,38.7L112.4,38.7z M115.4,38.7L115.4,38.7c-0.4,0-0.7,0.3-0.7,0.6
			c0,0.4,0.3,0.7,0.7,0.7h0.1c0.4,0,0.7-0.3,0.7-0.7C116.1,39,115.8,38.7,115.4,38.7L115.4,38.7z M118.5,38.7L118.5,38.7
			c-0.4,0-0.7,0.3-0.7,0.6c0,0.4,0.3,0.7,0.7,0.7h0.1c0.4,0,0.7-0.3,0.7-0.7C119.1,39,118.8,38.7,118.5,38.7L118.5,38.7z
			 M121.5,38.7L121.5,38.7c-0.4,0-0.7,0.3-0.7,0.6c0,0.4,0.3,0.7,0.6,0.7h0.1c0.4,0,0.6-0.3,0.6-0.7C122.2,39,121.9,38.7,121.5,38.7
			L121.5,38.7z M124.6,38.7L124.6,38.7c-0.4,0-0.7,0.3-0.7,0.6c0,0.4,0.3,0.7,0.7,0.7h0.1c0.4,0,0.7-0.3,0.7-0.7
			C125.2,39,124.9,38.7,124.6,38.7L124.6,38.7z M127.6,38.7L127.6,38.7c-0.4,0-0.7,0.3-0.7,0.6c0,0.4,0.3,0.7,0.7,0.7h0.1
			c0.4,0,0.7-0.3,0.7-0.7C128.3,39,128,38.7,127.6,38.7L127.6,38.7z M130.6,38.7C130.6,38.7,130.5,38.7,130.6,38.7l-0.1,0
			c-0.4,0-0.6,0.4-0.6,0.7c0,0.3,0.3,0.6,0.6,0.6c0,0,0.1,0,0.1,0c0,0,0,0,0,0c0,0,0,0,0,0c0,0,0,0,0,0c0,0,0,0,0,0c0,0,0,0,0,0
			c0.4-0.1,0.6-0.4,0.5-0.7C131.2,38.9,130.9,38.7,130.6,38.7L130.6,38.7z M133,37.5c-0.2,0-0.3,0.1-0.4,0.2l0,0
			c-0.3,0.2-0.3,0.7,0,0.9c0.1,0.1,0.3,0.2,0.5,0.2c0.2,0,0.3-0.1,0.4-0.2c0,0,0,0,0,0l0,0c0,0,0,0,0,0c0,0,0,0,0,0c0,0,0,0,0,0
			c0.3-0.2,0.3-0.7,0-0.9C133.3,37.6,133.1,37.5,133,37.5L133,37.5z M134.3,35.3c-0.3,0-0.6,0.2-0.6,0.5l0,0
			c-0.1,0.4,0.1,0.7,0.5,0.8c0,0,0.1,0,0.1,0c0.3,0,0.6-0.2,0.6-0.5c0,0,0,0,0,0c0,0,0,0,0,0c0,0,0,0,0,0v0c0,0,0,0,0,0c0,0,0,0,0,0
			c0.1-0.3-0.1-0.7-0.5-0.8C134.3,35.3,134.3,35.3,134.3,35.3L134.3,35.3z M134.4,32.3c-0.4,0-0.6,0.3-0.6,0.7v0.1
			c0,0.4,0.3,0.7,0.6,0.7c0.4,0,0.6-0.3,0.6-0.7V33C135,32.6,134.7,32.3,134.4,32.3L134.4,32.3z M134.4,29.3c-0.4,0-0.6,0.3-0.6,0.6
			V30c0,0.4,0.3,0.6,0.6,0.6c0.4,0,0.6-0.3,0.6-0.6v-0.1C135,29.6,134.7,29.3,134.4,29.3L134.4,29.3z M134.4,26.2
			c-0.4,0-0.6,0.3-0.6,0.6v0.1c0,0.4,0.3,0.6,0.6,0.6c0.4,0,0.6-0.3,0.6-0.6v-0.1C135,26.5,134.7,26.2,134.4,26.2L134.4,26.2z
			 M134.4,23.2c-0.4,0-0.6,0.3-0.6,0.6v0.1c0,0.4,0.3,0.6,0.6,0.6c0.4,0,0.6-0.3,0.6-0.6v-0.1C135,23.5,134.7,23.2,134.4,23.2
			L134.4,23.2z M134.4,20.1c-0.4,0-0.6,0.3-0.6,0.6v0.1c0,0.4,0.3,0.6,0.6,0.6c0.4,0,0.6-0.3,0.6-0.6v-0.1
			C135,20.4,134.7,20.1,134.4,20.1L134.4,20.1z M134.4,17.1c-0.4,0-0.6,0.3-0.6,0.6v0.1c0,0.4,0.3,0.6,0.6,0.6
			c0.4,0,0.6-0.3,0.6-0.6v-0.1C135,17.4,134.7,17.1,134.4,17.1L134.4,17.1z M134.4,14c-0.4,0-0.6,0.3-0.6,0.6v0.1
			c0,0.4,0.3,0.6,0.6,0.6c0.4,0,0.6-0.3,0.6-0.6v-0.1C135,14.3,134.7,14,134.4,14L134.4,14z M134.4,11c-0.4,0-0.6,0.3-0.6,0.6v0.1
			c0,0.4,0.3,0.6,0.6,0.6c0.4,0,0.6-0.3,0.6-0.6v-0.1C135,11.3,134.7,11,134.4,11L134.4,11z M134.4,7.9c-0.4,0-0.6,0.3-0.6,0.7v0.1
			c0,0.4,0.3,0.6,0.6,0.6c0.4,0,0.6-0.3,0.6-0.6V8.6C135,8.2,134.7,7.9,134.4,7.9L134.4,7.9z M134.4,4.8c-0.4,0-0.6,0.3-0.6,0.7v0.1
			c0,0.4,0.3,0.7,0.6,0.7c0.4,0,0.6-0.3,0.6-0.7V5.5C135,5.1,134.7,4.8,134.4,4.8L134.4,4.8z M133.8,2.2c-0.1,0-0.2,0-0.3,0.1
			c-0.3,0.2-0.4,0.6-0.3,0.9l0,0c0.1,0.2,0.3,0.3,0.6,0.3c0.1,0,0.2,0,0.3-0.1c0.3-0.2,0.4-0.6,0.3-0.9c0,0,0,0,0,0c0,0,0,0,0,0
			c0,0,0,0,0,0c0,0,0,0,0,0C134.2,2.3,134,2.2,133.8,2.2L133.8,2.2z M131.9,0.4c-0.2,0-0.5,0.1-0.6,0.4c-0.2,0.3,0,0.7,0.3,0.9l0,0
			c0.1,0,0.2,0.1,0.3,0.1c0.2,0,0.5-0.1,0.6-0.4c0.2-0.3,0-0.7-0.3-0.9c0,0,0,0,0,0c0,0,0,0,0,0c0,0,0,0,0,0h0c0,0,0,0,0,0
			C132.1,0.4,132,0.4,131.9,0.4L131.9,0.4z"/>
	</g>
</g>
<g>
	<g>
		<path class="st1" d="M22.1,25.3h-0.3v-1.2c0-0.2-0.2-0.4-0.4-0.4h-0.8l-0.4-0.5c-0.1-0.1-0.1-0.3-0.1-0.4l0.5-1.7
			c0.1-0.5,0.1-1,0-1.5l-0.2-0.9l0.1-0.2c0.4-0.6,0.5-1.3,0.5-2l-0.1-2l0.2,0c0.2,0,0.3-0.2,0.3-0.3l0.3-3c0-0.4-0.2-0.9-0.6-1.1
			l-0.8-0.3c-0.2-0.1-0.3-0.2-0.2-0.4l0.2-0.9c0.1-0.5,0-0.9-0.3-1.3c-0.3-0.4-0.8-0.6-1.3-0.6s-0.9,0.2-1.3,0.6
			c-0.3,0.4-0.4,0.8-0.3,1.3l0.2,0.9c0,0.2-0.1,0.3-0.2,0.4l-0.8,0.3c-0.4,0.2-0.7,0.6-0.6,1.1l0.3,3c0,0.2,0.2,0.3,0.3,0.3l0.2,0
			l-0.1,2c0,0.7,0.1,1.4,0.5,2l0.1,0.2L17,19.7c-0.1,0.5-0.1,1,0,1.5l0.5,1.7c0,0.1,0,0.3-0.1,0.4L17,23.7h-0.8
			c-0.2,0-0.4,0.2-0.4,0.4v1.2h-0.3c-0.2,0-0.4,0.2-0.4,0.4V30c0,0.2,0.2,0.4,0.4,0.4h6.6c0.2,0,0.4-0.2,0.4-0.4v-4.3
			C22.5,25.5,22.3,25.3,22.1,25.3z M16.9,13.8l-0.3-2.7c0-0.1,0.1-0.2,0.2-0.2l0.8-0.3c0.6-0.2,0.8-0.8,0.7-1.4L18,8.3
			c-0.1-0.2,0-0.4,0.1-0.6c0.2-0.2,0.4-0.3,0.7-0.3c0.3,0,0.5,0.1,0.7,0.3c0.1,0.2,0.2,0.4,0.1,0.6l-0.2,0.9
			c-0.1,0.5,0.1,1.1,0.7,1.4l0.8,0.3c0.1,0,0.2,0.1,0.2,0.2l-0.3,2.7l-1.1-0.9c-0.5-0.4-1.2-0.4-1.7,0L16.9,13.8z M17.4,16.6
			l0.1-2.2l1-0.9c0.2-0.2,0.4-0.2,0.6,0l1,0.9l0.1,2.2c0,0.5-0.1,1.1-0.4,1.5l-0.2,0.3c-0.1,0.1-0.1,0.2,0,0.3l0.2,1.1
			c0.1,0.4,0.1,0.7,0,1.1l-0.5,1.7c-0.1,0.4,0,0.8,0.2,1.1l0,0h-0.4v-9.4c0-0.2-0.2-0.4-0.4-0.4c-0.2,0-0.4,0.2-0.4,0.4v9.4H18l0,0
			c0.2-0.3,0.3-0.7,0.2-1.1l-0.5-1.7c-0.1-0.4-0.1-0.7,0-1.1l0.2-1.1c0-0.1,0-0.2,0-0.3l-0.2-0.3C17.4,17.7,17.3,17.2,17.4,16.6z
			 M16.6,24.5H21v0.8h-4.4V24.5z M21.7,29.6h-5.8v-3.5h5.8L21.7,29.6L21.7,29.6z"/>
	</g>
</g>
<g>
	<path class="st0" d="M46.7,8.6v5.7h-0.9v-2.6h-3v2.6H42V8.6h0.9v2.5h3V8.6H46.7z"/>
	<path class="st0" d="M52.9,14.3h-0.7c-0.1,0-0.1,0-0.2-0.1c0,0-0.1-0.1-0.1-0.1l-0.5-1.3h-2.5l-0.5,1.3c0,0.1-0.1,0.1-0.1,0.1
		c-0.1,0-0.1,0.1-0.2,0.1h-0.7l2.3-5.7h0.9L52.9,14.3z M51.2,12.2L50.4,10c-0.1-0.2-0.1-0.3-0.2-0.6c0,0.1-0.1,0.2-0.1,0.3
		c0,0.1-0.1,0.2-0.1,0.3l-0.8,2.2H51.2z"/>
	<path class="st0" d="M56.9,13.6v0.7h-3.3V8.6h0.9v5H56.9z"/>
	<path class="st0" d="M61,13.6v0.7h-3.3V8.6h0.9v5H61z"/>
	<path class="st0" d="M69,11.5c0,0.4-0.1,0.8-0.2,1.2c-0.1,0.4-0.3,0.7-0.6,0.9c-0.3,0.3-0.6,0.5-0.9,0.6c-0.3,0.1-0.7,0.2-1.2,0.2
		c-0.4,0-0.8-0.1-1.2-0.2c-0.4-0.1-0.7-0.3-0.9-0.6c-0.3-0.3-0.4-0.6-0.6-0.9c-0.1-0.4-0.2-0.8-0.2-1.2c0-0.4,0.1-0.8,0.2-1.2
		c0.1-0.4,0.3-0.7,0.6-0.9c0.2-0.3,0.5-0.5,0.9-0.6c0.4-0.1,0.7-0.2,1.2-0.2c0.4,0,0.8,0.1,1.2,0.2c0.3,0.1,0.6,0.3,0.9,0.6
		c0.3,0.3,0.4,0.6,0.6,0.9C68.9,10.6,69,11,69,11.5z M68.1,11.5c0-0.3,0-0.6-0.1-0.9c-0.1-0.3-0.2-0.5-0.4-0.7
		c-0.2-0.2-0.4-0.3-0.6-0.4c-0.2-0.1-0.5-0.2-0.8-0.2s-0.6,0.1-0.8,0.2c-0.2,0.1-0.5,0.2-0.6,0.4c-0.2,0.2-0.3,0.4-0.4,0.7
		c-0.1,0.3-0.1,0.6-0.1,0.9c0,0.3,0,0.7,0.1,0.9c0.1,0.3,0.2,0.5,0.4,0.7c0.2,0.2,0.4,0.3,0.6,0.4c0.2,0.1,0.5,0.2,0.8,0.2
		s0.6-0.1,0.8-0.2c0.2-0.1,0.5-0.2,0.6-0.4c0.2-0.2,0.3-0.4,0.4-0.7C68.1,12.1,68.1,11.8,68.1,11.5z"/>
	<path class="st0" d="M70.9,9.3v1.9h2.3v0.7h-2.3v2.4h-0.9V8.6h3.6v0.7H70.9z"/>
	<path class="st0" d="M77.3,9.3v1.9h2.3v0.7h-2.3v2.4h-0.9V8.6H80v0.7H77.3z"/>
	<path class="st0" d="M85.2,14.3h-0.7c-0.1,0-0.1,0-0.2-0.1c0,0-0.1-0.1-0.1-0.1l-0.5-1.3h-2.5l-0.5,1.3c0,0.1-0.1,0.1-0.1,0.1
		s-0.1,0.1-0.2,0.1h-0.7l2.3-5.7h0.9L85.2,14.3z M83.5,12.2L82.7,10c-0.1-0.2-0.1-0.3-0.2-0.6c0,0.1-0.1,0.2-0.1,0.3
		c0,0.1-0.1,0.2-0.1,0.3l-0.8,2.2H83.5z"/>
	<path class="st0" d="M92,8.6v5.7h-0.7v-4.1c0-0.1,0-0.1,0-0.2s0-0.1,0-0.2l-1.9,3.5c-0.1,0.1-0.2,0.2-0.3,0.2h-0.1
		c-0.1,0-0.2-0.1-0.3-0.2l-1.9-3.5c0,0.1,0,0.3,0,0.4v4.1h-0.7V8.6h0.6c0.1,0,0.1,0,0.2,0c0,0,0.1,0.1,0.1,0.1l1.9,3.4
		c0,0.1,0.1,0.1,0.1,0.2s0.1,0.2,0.1,0.2c0.1-0.2,0.1-0.3,0.2-0.5L91,8.7c0-0.1,0.1-0.1,0.1-0.1c0,0,0.1,0,0.2,0H92z"/>
	<path class="st0" d="M97,13.6l0,0.7h-3.6V8.6h3.6v0.7h-2.7v1.8h2.2v0.7h-2.2v1.9H97z"/>
</g>
<g>
	<path class="st0" d="M51.5,18.2L47.2,29h-1.4l-4.4-10.8h1.3c0.1,0,0.3,0,0.3,0.1c0.1,0.1,0.2,0.2,0.2,0.3l2.9,7.3
		c0.1,0.2,0.1,0.4,0.2,0.6s0.1,0.4,0.2,0.7c0-0.2,0.1-0.5,0.2-0.7s0.1-0.4,0.2-0.6l2.9-7.3c0-0.1,0.1-0.2,0.2-0.3
		c0.1-0.1,0.2-0.1,0.3-0.1H51.5z"/>
	<path class="st0" d="M54.5,29h-1.6V18.2h1.6V29z"/>
	<path class="st0" d="M62.7,20c0,0.1-0.1,0.1-0.2,0.2s-0.1,0.1-0.2,0.1c-0.1,0-0.2,0-0.3-0.1s-0.3-0.2-0.4-0.3
		c-0.2-0.1-0.4-0.2-0.6-0.3c-0.2-0.1-0.5-0.1-0.9-0.1c-0.3,0-0.6,0-0.8,0.1c-0.2,0.1-0.4,0.2-0.6,0.3c-0.2,0.1-0.3,0.3-0.4,0.5
		c-0.1,0.2-0.1,0.4-0.1,0.6c0,0.3,0.1,0.5,0.2,0.7s0.3,0.4,0.6,0.5c0.2,0.1,0.5,0.3,0.8,0.4c0.3,0.1,0.6,0.2,0.9,0.3
		s0.6,0.2,0.9,0.4c0.3,0.1,0.6,0.3,0.8,0.5c0.2,0.2,0.4,0.5,0.6,0.8c0.1,0.3,0.2,0.7,0.2,1.1c0,0.5-0.1,0.9-0.2,1.3
		c-0.2,0.4-0.4,0.8-0.7,1.1c-0.3,0.3-0.7,0.6-1.1,0.7c-0.5,0.2-1,0.3-1.5,0.3c-0.3,0-0.7,0-1-0.1c-0.3-0.1-0.6-0.2-0.9-0.3
		c-0.3-0.1-0.6-0.3-0.8-0.4c-0.3-0.2-0.5-0.4-0.7-0.6l0.5-0.8c0-0.1,0.1-0.1,0.2-0.2s0.1-0.1,0.2-0.1c0.1,0,0.2,0.1,0.4,0.2
		c0.1,0.1,0.3,0.2,0.5,0.4c0.2,0.1,0.4,0.3,0.7,0.4c0.3,0.1,0.6,0.2,1,0.2c0.3,0,0.6,0,0.9-0.1c0.3-0.1,0.5-0.2,0.7-0.4
		c0.2-0.2,0.3-0.4,0.4-0.6c0.1-0.2,0.1-0.5,0.1-0.8c0-0.3-0.1-0.6-0.2-0.8s-0.3-0.4-0.6-0.5c-0.2-0.1-0.5-0.3-0.8-0.3
		c-0.3-0.1-0.6-0.2-0.9-0.3c-0.3-0.1-0.6-0.2-0.9-0.4c-0.3-0.1-0.6-0.3-0.8-0.5c-0.2-0.2-0.4-0.5-0.6-0.8c-0.1-0.3-0.2-0.7-0.2-1.2
		c0-0.4,0.1-0.8,0.2-1.1c0.1-0.4,0.4-0.7,0.7-1c0.3-0.3,0.6-0.5,1.1-0.7s0.9-0.3,1.4-0.3c0.6,0,1.2,0.1,1.7,0.3
		c0.5,0.2,0.9,0.5,1.3,0.8L62.7,20z"/>
	<path class="st0" d="M66.9,29h-1.6V18.2h1.6V29z"/>
	<path class="st0" d="M76.9,19.6h-3.4V29h-1.6v-9.4h-3.4v-1.3h8.4V19.6z"/>
	<path class="st0" d="M90.6,18.2V29H89v-4.9h-5.6V29h-1.6V18.2h1.6V23H89v-4.8H90.6z"/>
	<path class="st0" d="M102.2,29h-1.2c-0.1,0-0.3,0-0.3-0.1c-0.1-0.1-0.2-0.2-0.2-0.3l-1-2.5h-4.7l-1,2.5c0,0.1-0.1,0.2-0.2,0.3
		C93.4,29,93.3,29,93.2,29H92l4.3-10.8h1.6L102.2,29z M99,25l-1.6-4.2c-0.1-0.3-0.2-0.6-0.3-1.1c-0.1,0.2-0.1,0.4-0.2,0.6
		c-0.1,0.2-0.1,0.4-0.2,0.5L95.1,25H99z"/>
	<path class="st0" d="M109.7,27.7V29h-6.2V18.2h1.6v9.4H109.7z"/>
	<path class="st0" d="M117.4,27.7V29h-6.2V18.2h1.6v9.4H117.4z"/>
</g>
</svg>
